<svg xmlns="http://www.w3.org/2000/svg" viewBox="0 0 640 420" role="img" aria-label="Abenteuer-Visual">
  <defs>
    <linearGradient id="a" x1="0" x2="1" y1="0" y2="1">
      <stop offset="0" stop-color="#1e2d61"/>
      <stop offset="1" stop-color="#0f1732"/>
    </linearGradient>
  </defs>
  <rect width="640" height="420" fill="url(#a)"/>
  <circle cx="470" cy="106" r="62" fill="#ffd98f"/>
  <path d="M0 276 C120 250 182 300 290 266 C382 238 472 228 640 258 L640 420 L0 420 Z" fill="#152a55"/>
  <path d="M0 320 C130 286 220 342 328 308 C438 274 538 308 640 286 L640 420 L0 420 Z" fill="#0e1f41"/>
  <path d="M184 252 L258 196 L332 252" stroke="#93d4ff" stroke-width="10" fill="none" stroke-linecap="round"/>
  <rect x="248" y="252" width="20" height="54" fill="#8ec9f3"/>
  <path d="M258 198 L350 238 L258 244 Z" fill="#f0f7ff"/>
</svg>
