<svg xmlns="http://www.w3.org/2000/svg" viewBox="0 0 640 420" role="img" aria-label="Crew-Visual">
  <defs>
    <linearGradient id="c" x1="0" x2="1" y1="0" y2="1">
      <stop offset="0" stop-color="#15284f"/>
      <stop offset="1" stop-color="#0e142b"/>
    </linearGradient>
  </defs>
  <rect width="640" height="420" fill="url(#c)"/>
  <circle cx="504" cy="94" r="58" fill="#ffe7a4"/>
  <path d="M0 278 C116 234 246 314 354 282 C452 252 552 292 640 274 L640 420 L0 420 Z" fill="#102347"/>
  <ellipse cx="194" cy="230" rx="34" ry="34" fill="#9ec7ff"/>
  <ellipse cx="278" cy="222" rx="30" ry="30" fill="#9ec7ff"/>
  <ellipse cx="354" cy="236" rx="26" ry="26" fill="#9ec7ff"/>
  <path d="M148 310 C170 278 216 278 240 310" stroke="#8dc1f9" stroke-width="12" fill="none" stroke-linecap="round"/>
  <path d="M238 302 C258 274 298 274 318 302" stroke="#8dc1f9" stroke-width="11" fill="none" stroke-linecap="round"/>
  <path d="M322 310 C338 288 370 288 388 310" stroke="#8dc1f9" stroke-width="10" fill="none" stroke-linecap="round"/>
  <path d="M98 198 C168 126 240 120 324 172" stroke="#7ce7ff" stroke-width="4" fill="none" opacity="0.7"/>
</svg>
