<svg xmlns="http://www.w3.org/2000/svg" viewBox="0 0 1400 920" role="img" aria-label="Anime-inspiriertes Nacht-Abenteuer">
  <defs>
    <linearGradient id="bg" x1="0" x2="1" y1="0" y2="1">
      <stop offset="0" stop-color="#1a2751"/>
      <stop offset="1" stop-color="#0b1227"/>
    </linearGradient>
    <linearGradient id="sea" x1="0" x2="0" y1="0" y2="1">
      <stop offset="0" stop-color="#143560"/>
      <stop offset="1" stop-color="#081a33"/>
    </linearGradient>
    <radialGradient id="moon" cx="52%" cy="24%" r="18%">
      <stop offset="0" stop-color="#fffde8"/>
      <stop offset="1" stop-color="#ffd38b"/>
    </radialGradient>
  </defs>
  <rect width="1400" height="920" fill="url(#bg)"/>
  <circle cx="740" cy="210" r="130" fill="url(#moon)" opacity="0.95"/>
  <g opacity="0.42" fill="#87b9ff">
    <circle cx="140" cy="80" r="2"/><circle cx="190" cy="170" r="2"/><circle cx="280" cy="70" r="1.5"/>
    <circle cx="480" cy="110" r="2"/><circle cx="560" cy="190" r="1.5"/><circle cx="1040" cy="120" r="2"/>
    <circle cx="1160" cy="180" r="2"/><circle cx="1260" cy="90" r="1.5"/><circle cx="1320" cy="160" r="2"/>
  </g>
  <path d="M0 520 L1400 420 L1400 920 L0 920 Z" fill="url(#sea)"/>
  <path d="M0 560 C180 530 260 610 420 580 C560 554 670 490 840 530 C970 560 1120 640 1400 600 L1400 920 L0 920 Z" fill="#0a1d3a" opacity="0.95"/>
  <path d="M500 520 C560 460 650 430 760 430 C860 430 960 470 1040 540" stroke="#86d4ff" stroke-width="4" fill="none" opacity="0.35"/>
  <g transform="translate(360 430)">
    <path d="M0 150 L430 120 L470 150 L390 178 L44 198 Z" fill="#0f172f"/>
    <path d="M146 80 L300 66 L340 120 L140 134 Z" fill="#15244a"/>
    <path d="M206 8 L234 8 L234 84 L206 88 Z" fill="#1e3d70"/>
    <path d="M220 12 L358 72 L220 80 Z" fill="#e7f2ff"/>
    <ellipse cx="146" cy="163" rx="24" ry="24" fill="#091326"/>
    <ellipse cx="340" cy="152" rx="29" ry="29" fill="#091326"/>
  </g>
</svg>
